<mxfile host="app.diagrams.net" agent="Mozilla/5.0 (Windows NT 10.0; Win64; x64) AppleWebKit/537.36 (KHTML, like Gecko) Chrome/136.0.0.0 Safari/537.36 Edg/136.0.0.0" version="27.0.9">
  <diagram name="Page-1" id="gCVo9s67yQBFFViUO2aW">
    <mxGraphModel grid="1" page="1" gridSize="10" guides="1" tooltips="1" connect="1" arrows="1" fold="1" pageScale="1" pageWidth="850" pageHeight="1100" math="0" shadow="0">
      <root>
        <mxCell id="0" />
        <mxCell id="1" parent="0" />
        <mxCell id="VQ3b3Ni3QN9TiN-6UtQA-1" value="Users" style="html=1;whiteSpace=wrap;" vertex="1" parent="1">
          <mxGeometry x="320" y="130" width="110" height="50" as="geometry" />
        </mxCell>
        <mxCell id="VQ3b3Ni3QN9TiN-6UtQA-40" style="edgeStyle=none;rounded=0;orthogonalLoop=1;jettySize=auto;html=1;endArrow=none;startFill=0;" edge="1" parent="1" source="VQ3b3Ni3QN9TiN-6UtQA-2" target="VQ3b3Ni3QN9TiN-6UtQA-1">
          <mxGeometry relative="1" as="geometry" />
        </mxCell>
        <mxCell id="VQ3b3Ni3QN9TiN-6UtQA-2" value="&lt;u&gt;id_user&lt;/u&gt;" style="ellipse;whiteSpace=wrap;html=1;" vertex="1" parent="1">
          <mxGeometry x="80" y="70" width="140" height="70" as="geometry" />
        </mxCell>
        <mxCell id="VQ3b3Ni3QN9TiN-6UtQA-39" style="edgeStyle=none;rounded=0;orthogonalLoop=1;jettySize=auto;html=1;endArrow=none;startFill=0;" edge="1" parent="1" source="VQ3b3Ni3QN9TiN-6UtQA-3" target="VQ3b3Ni3QN9TiN-6UtQA-1">
          <mxGeometry relative="1" as="geometry" />
        </mxCell>
        <mxCell id="VQ3b3Ni3QN9TiN-6UtQA-3" value="name" style="ellipse;whiteSpace=wrap;html=1;" vertex="1" parent="1">
          <mxGeometry x="120" y="195" width="140" height="70" as="geometry" />
        </mxCell>
        <mxCell id="VQ3b3Ni3QN9TiN-6UtQA-38" style="edgeStyle=none;rounded=0;orthogonalLoop=1;jettySize=auto;html=1;endArrow=none;startFill=0;" edge="1" parent="1" source="VQ3b3Ni3QN9TiN-6UtQA-4" target="VQ3b3Ni3QN9TiN-6UtQA-1">
          <mxGeometry relative="1" as="geometry" />
        </mxCell>
        <mxCell id="VQ3b3Ni3QN9TiN-6UtQA-4" value="Email" style="ellipse;whiteSpace=wrap;html=1;" vertex="1" parent="1">
          <mxGeometry x="305" y="230" width="140" height="70" as="geometry" />
        </mxCell>
        <mxCell id="VQ3b3Ni3QN9TiN-6UtQA-37" style="edgeStyle=none;rounded=0;orthogonalLoop=1;jettySize=auto;html=1;endArrow=none;startFill=0;" edge="1" parent="1" source="VQ3b3Ni3QN9TiN-6UtQA-5" target="VQ3b3Ni3QN9TiN-6UtQA-1">
          <mxGeometry relative="1" as="geometry" />
        </mxCell>
        <mxCell id="VQ3b3Ni3QN9TiN-6UtQA-5" value="Password" style="ellipse;whiteSpace=wrap;html=1;" vertex="1" parent="1">
          <mxGeometry x="470" y="210" width="140" height="70" as="geometry" />
        </mxCell>
        <mxCell id="VQ3b3Ni3QN9TiN-6UtQA-34" style="edgeStyle=none;rounded=0;orthogonalLoop=1;jettySize=auto;html=1;endArrow=none;startFill=0;" edge="1" parent="1" source="VQ3b3Ni3QN9TiN-6UtQA-6" target="VQ3b3Ni3QN9TiN-6UtQA-1">
          <mxGeometry relative="1" as="geometry" />
        </mxCell>
        <mxCell id="VQ3b3Ni3QN9TiN-6UtQA-6" value="roles" style="ellipse;whiteSpace=wrap;html=1;" vertex="1" parent="1">
          <mxGeometry x="170" y="-20" width="140" height="70" as="geometry" />
        </mxCell>
        <mxCell id="VQ3b3Ni3QN9TiN-6UtQA-36" style="edgeStyle=none;rounded=0;orthogonalLoop=1;jettySize=auto;html=1;endArrow=none;startFill=0;" edge="1" parent="1" source="VQ3b3Ni3QN9TiN-6UtQA-7" target="VQ3b3Ni3QN9TiN-6UtQA-1">
          <mxGeometry relative="1" as="geometry" />
        </mxCell>
        <mxCell id="VQ3b3Ni3QN9TiN-6UtQA-7" value="unit_id" style="ellipse;whiteSpace=wrap;html=1;" vertex="1" parent="1">
          <mxGeometry x="445" y="-20" width="140" height="70" as="geometry" />
        </mxCell>
        <mxCell id="VQ3b3Ni3QN9TiN-6UtQA-42" style="edgeStyle=none;rounded=0;orthogonalLoop=1;jettySize=auto;html=1;endArrow=none;startFill=0;" edge="1" parent="1" source="VQ3b3Ni3QN9TiN-6UtQA-8" target="VQ3b3Ni3QN9TiN-6UtQA-22">
          <mxGeometry relative="1" as="geometry" />
        </mxCell>
        <mxCell id="VQ3b3Ni3QN9TiN-6UtQA-59" style="edgeStyle=none;rounded=0;orthogonalLoop=1;jettySize=auto;html=1;endArrow=none;startFill=0;" edge="1" parent="1" source="VQ3b3Ni3QN9TiN-6UtQA-8" target="VQ3b3Ni3QN9TiN-6UtQA-58">
          <mxGeometry relative="1" as="geometry" />
        </mxCell>
        <mxCell id="VQ3b3Ni3QN9TiN-6UtQA-66" style="edgeStyle=none;rounded=0;orthogonalLoop=1;jettySize=auto;html=1;endArrow=none;startFill=0;" edge="1" parent="1" source="VQ3b3Ni3QN9TiN-6UtQA-8" target="VQ3b3Ni3QN9TiN-6UtQA-64">
          <mxGeometry relative="1" as="geometry">
            <Array as="points">
              <mxPoint x="130" y="-265" />
            </Array>
          </mxGeometry>
        </mxCell>
        <mxCell id="VQ3b3Ni3QN9TiN-6UtQA-8" value="units" style="html=1;whiteSpace=wrap;" vertex="1" parent="1">
          <mxGeometry x="320" y="-290" width="110" height="50" as="geometry" />
        </mxCell>
        <mxCell id="VQ3b3Ni3QN9TiN-6UtQA-23" style="rounded=0;orthogonalLoop=1;jettySize=auto;html=1;endArrow=none;startFill=0;" edge="1" parent="1" source="VQ3b3Ni3QN9TiN-6UtQA-9" target="VQ3b3Ni3QN9TiN-6UtQA-8">
          <mxGeometry relative="1" as="geometry" />
        </mxCell>
        <mxCell id="VQ3b3Ni3QN9TiN-6UtQA-9" value="&lt;u&gt;id_units&lt;/u&gt;" style="ellipse;whiteSpace=wrap;html=1;" vertex="1" parent="1">
          <mxGeometry x="190" y="-190" width="140" height="70" as="geometry" />
        </mxCell>
        <mxCell id="VQ3b3Ni3QN9TiN-6UtQA-24" style="rounded=0;orthogonalLoop=1;jettySize=auto;html=1;endArrow=none;startFill=0;" edge="1" parent="1" source="VQ3b3Ni3QN9TiN-6UtQA-10" target="VQ3b3Ni3QN9TiN-6UtQA-8">
          <mxGeometry relative="1" as="geometry" />
        </mxCell>
        <mxCell id="VQ3b3Ni3QN9TiN-6UtQA-10" value="unit_name" style="ellipse;whiteSpace=wrap;html=1;" vertex="1" parent="1">
          <mxGeometry x="415" y="-190" width="140" height="70" as="geometry" />
        </mxCell>
        <mxCell id="VQ3b3Ni3QN9TiN-6UtQA-44" style="edgeStyle=none;rounded=0;orthogonalLoop=1;jettySize=auto;html=1;endArrow=none;startFill=0;" edge="1" parent="1" source="VQ3b3Ni3QN9TiN-6UtQA-11" target="VQ3b3Ni3QN9TiN-6UtQA-43">
          <mxGeometry relative="1" as="geometry" />
        </mxCell>
        <mxCell id="VQ3b3Ni3QN9TiN-6UtQA-11" value="Tarifs" style="html=1;whiteSpace=wrap;" vertex="1" parent="1">
          <mxGeometry x="-260" y="-220" width="110" height="50" as="geometry" />
        </mxCell>
        <mxCell id="VQ3b3Ni3QN9TiN-6UtQA-30" style="edgeStyle=none;rounded=0;orthogonalLoop=1;jettySize=auto;html=1;endArrow=none;startFill=0;" edge="1" parent="1" source="VQ3b3Ni3QN9TiN-6UtQA-12" target="VQ3b3Ni3QN9TiN-6UtQA-11">
          <mxGeometry relative="1" as="geometry" />
        </mxCell>
        <mxCell id="VQ3b3Ni3QN9TiN-6UtQA-12" value="&lt;u&gt;id_tarifs&lt;/u&gt;" style="ellipse;whiteSpace=wrap;html=1;" vertex="1" parent="1">
          <mxGeometry x="-440" y="-210" width="140" height="70" as="geometry" />
        </mxCell>
        <mxCell id="VQ3b3Ni3QN9TiN-6UtQA-31" style="edgeStyle=none;rounded=0;orthogonalLoop=1;jettySize=auto;html=1;endArrow=none;startFill=0;" edge="1" parent="1" source="VQ3b3Ni3QN9TiN-6UtQA-13" target="VQ3b3Ni3QN9TiN-6UtQA-11">
          <mxGeometry relative="1" as="geometry" />
        </mxCell>
        <mxCell id="VQ3b3Ni3QN9TiN-6UtQA-13" value="unit_id" style="ellipse;whiteSpace=wrap;html=1;" vertex="1" parent="1">
          <mxGeometry x="-40" y="-140" width="140" height="70" as="geometry" />
        </mxCell>
        <mxCell id="VQ3b3Ni3QN9TiN-6UtQA-27" style="edgeStyle=none;rounded=0;orthogonalLoop=1;jettySize=auto;html=1;endArrow=none;startFill=0;" edge="1" parent="1" source="VQ3b3Ni3QN9TiN-6UtQA-14" target="VQ3b3Ni3QN9TiN-6UtQA-11">
          <mxGeometry relative="1" as="geometry" />
        </mxCell>
        <mxCell id="VQ3b3Ni3QN9TiN-6UtQA-14" value="tarif_category" style="ellipse;whiteSpace=wrap;html=1;" vertex="1" parent="1">
          <mxGeometry x="-370" y="-20" width="140" height="70" as="geometry" />
        </mxCell>
        <mxCell id="VQ3b3Ni3QN9TiN-6UtQA-25" style="edgeStyle=none;rounded=0;orthogonalLoop=1;jettySize=auto;html=1;endArrow=none;startFill=0;" edge="1" parent="1" source="VQ3b3Ni3QN9TiN-6UtQA-15" target="VQ3b3Ni3QN9TiN-6UtQA-11">
          <mxGeometry relative="1" as="geometry" />
        </mxCell>
        <mxCell id="VQ3b3Ni3QN9TiN-6UtQA-15" value="satuan" style="ellipse;whiteSpace=wrap;html=1;" vertex="1" parent="1">
          <mxGeometry x="-440" y="-100" width="140" height="70" as="geometry" />
        </mxCell>
        <mxCell id="VQ3b3Ni3QN9TiN-6UtQA-28" style="edgeStyle=none;rounded=0;orthogonalLoop=1;jettySize=auto;html=1;endArrow=none;startFill=0;" edge="1" parent="1" source="VQ3b3Ni3QN9TiN-6UtQA-16" target="VQ3b3Ni3QN9TiN-6UtQA-11">
          <mxGeometry relative="1" as="geometry" />
        </mxCell>
        <mxCell id="VQ3b3Ni3QN9TiN-6UtQA-16" value="harga_per_unit" style="ellipse;whiteSpace=wrap;html=1;" vertex="1" parent="1">
          <mxGeometry x="-160" y="-50" width="140" height="70" as="geometry" />
        </mxCell>
        <mxCell id="VQ3b3Ni3QN9TiN-6UtQA-33" style="edgeStyle=none;rounded=0;orthogonalLoop=1;jettySize=auto;html=1;endArrow=none;startFill=0;" edge="1" parent="1" source="VQ3b3Ni3QN9TiN-6UtQA-22" target="VQ3b3Ni3QN9TiN-6UtQA-1">
          <mxGeometry relative="1" as="geometry" />
        </mxCell>
        <mxCell id="VQ3b3Ni3QN9TiN-6UtQA-22" value="manage" style="rhombus;whiteSpace=wrap;html=1;" vertex="1" parent="1">
          <mxGeometry x="335" y="-100" width="80" height="80" as="geometry" />
        </mxCell>
        <mxCell id="VQ3b3Ni3QN9TiN-6UtQA-68" style="edgeStyle=none;rounded=0;orthogonalLoop=1;jettySize=auto;html=1;endArrow=none;startFill=0;" edge="1" parent="1" source="VQ3b3Ni3QN9TiN-6UtQA-43" target="VQ3b3Ni3QN9TiN-6UtQA-1">
          <mxGeometry relative="1" as="geometry" />
        </mxCell>
        <mxCell id="VQ3b3Ni3QN9TiN-6UtQA-43" value="Manage" style="rhombus;whiteSpace=wrap;html=1;" vertex="1" parent="1">
          <mxGeometry x="-245" y="115" width="80" height="80" as="geometry" />
        </mxCell>
        <mxCell id="VQ3b3Ni3QN9TiN-6UtQA-53" style="edgeStyle=none;rounded=0;orthogonalLoop=1;jettySize=auto;html=1;endArrow=none;startFill=0;" edge="1" parent="1" source="VQ3b3Ni3QN9TiN-6UtQA-47" target="VQ3b3Ni3QN9TiN-6UtQA-49">
          <mxGeometry relative="1" as="geometry" />
        </mxCell>
        <mxCell id="VQ3b3Ni3QN9TiN-6UtQA-62" style="edgeStyle=none;rounded=0;orthogonalLoop=1;jettySize=auto;html=1;endArrow=none;startFill=0;" edge="1" parent="1" source="VQ3b3Ni3QN9TiN-6UtQA-47" target="VQ3b3Ni3QN9TiN-6UtQA-61">
          <mxGeometry relative="1" as="geometry" />
        </mxCell>
        <mxCell id="VQ3b3Ni3QN9TiN-6UtQA-47" value="initial_balance" style="html=1;whiteSpace=wrap;" vertex="1" parent="1">
          <mxGeometry x="870" y="-290" width="110" height="50" as="geometry" />
        </mxCell>
        <mxCell id="VQ3b3Ni3QN9TiN-6UtQA-57" style="edgeStyle=none;rounded=0;orthogonalLoop=1;jettySize=auto;html=1;endArrow=none;startFill=0;" edge="1" parent="1" source="VQ3b3Ni3QN9TiN-6UtQA-48" target="VQ3b3Ni3QN9TiN-6UtQA-47">
          <mxGeometry relative="1" as="geometry" />
        </mxCell>
        <mxCell id="VQ3b3Ni3QN9TiN-6UtQA-48" value="&lt;u&gt;id_initial_balance&lt;/u&gt;" style="ellipse;whiteSpace=wrap;html=1;" vertex="1" parent="1">
          <mxGeometry x="995" y="-230" width="140" height="70" as="geometry" />
        </mxCell>
        <mxCell id="VQ3b3Ni3QN9TiN-6UtQA-49" value="unit_Id" style="ellipse;whiteSpace=wrap;html=1;" vertex="1" parent="1">
          <mxGeometry x="700" y="-360" width="140" height="70" as="geometry" />
        </mxCell>
        <mxCell id="VQ3b3Ni3QN9TiN-6UtQA-54" style="edgeStyle=none;rounded=0;orthogonalLoop=1;jettySize=auto;html=1;endArrow=none;startFill=0;" edge="1" parent="1" source="VQ3b3Ni3QN9TiN-6UtQA-50" target="VQ3b3Ni3QN9TiN-6UtQA-47">
          <mxGeometry relative="1" as="geometry" />
        </mxCell>
        <mxCell id="VQ3b3Ni3QN9TiN-6UtQA-50" value="created_at" style="ellipse;whiteSpace=wrap;html=1;" vertex="1" parent="1">
          <mxGeometry x="715" y="-230" width="140" height="70" as="geometry" />
        </mxCell>
        <mxCell id="VQ3b3Ni3QN9TiN-6UtQA-56" style="edgeStyle=none;rounded=0;orthogonalLoop=1;jettySize=auto;html=1;endArrow=none;startFill=0;" edge="1" parent="1" source="VQ3b3Ni3QN9TiN-6UtQA-51" target="VQ3b3Ni3QN9TiN-6UtQA-47">
          <mxGeometry relative="1" as="geometry" />
        </mxCell>
        <mxCell id="VQ3b3Ni3QN9TiN-6UtQA-51" value="user_id" style="ellipse;whiteSpace=wrap;html=1;" vertex="1" parent="1">
          <mxGeometry x="1020" y="-370" width="140" height="70" as="geometry" />
        </mxCell>
        <mxCell id="VQ3b3Ni3QN9TiN-6UtQA-55" style="edgeStyle=none;rounded=0;orthogonalLoop=1;jettySize=auto;html=1;endArrow=none;startFill=0;" edge="1" parent="1" source="VQ3b3Ni3QN9TiN-6UtQA-52" target="VQ3b3Ni3QN9TiN-6UtQA-47">
          <mxGeometry relative="1" as="geometry" />
        </mxCell>
        <mxCell id="VQ3b3Ni3QN9TiN-6UtQA-52" value="nominal" style="ellipse;whiteSpace=wrap;html=1;" vertex="1" parent="1">
          <mxGeometry x="855" y="-390" width="140" height="70" as="geometry" />
        </mxCell>
        <mxCell id="VQ3b3Ni3QN9TiN-6UtQA-60" style="edgeStyle=none;rounded=0;orthogonalLoop=1;jettySize=auto;html=1;endArrow=none;startFill=0;" edge="1" parent="1" source="VQ3b3Ni3QN9TiN-6UtQA-58" target="VQ3b3Ni3QN9TiN-6UtQA-47">
          <mxGeometry relative="1" as="geometry" />
        </mxCell>
        <mxCell id="VQ3b3Ni3QN9TiN-6UtQA-58" value="Have" style="rhombus;whiteSpace=wrap;html=1;" vertex="1" parent="1">
          <mxGeometry x="560" y="-305" width="80" height="80" as="geometry" />
        </mxCell>
        <mxCell id="VQ3b3Ni3QN9TiN-6UtQA-63" style="edgeStyle=none;rounded=0;orthogonalLoop=1;jettySize=auto;html=1;endArrow=none;startFill=0;" edge="1" parent="1" source="VQ3b3Ni3QN9TiN-6UtQA-61" target="VQ3b3Ni3QN9TiN-6UtQA-1">
          <mxGeometry relative="1" as="geometry" />
        </mxCell>
        <mxCell id="VQ3b3Ni3QN9TiN-6UtQA-61" value="manage" style="rhombus;whiteSpace=wrap;html=1;" vertex="1" parent="1">
          <mxGeometry x="885" y="115" width="80" height="80" as="geometry" />
        </mxCell>
        <mxCell id="VQ3b3Ni3QN9TiN-6UtQA-67" style="edgeStyle=none;rounded=0;orthogonalLoop=1;jettySize=auto;html=1;endArrow=none;startFill=0;" edge="1" parent="1" source="VQ3b3Ni3QN9TiN-6UtQA-64" target="VQ3b3Ni3QN9TiN-6UtQA-11">
          <mxGeometry relative="1" as="geometry" />
        </mxCell>
        <mxCell id="VQ3b3Ni3QN9TiN-6UtQA-64" value="Have" style="rhombus;whiteSpace=wrap;html=1;" vertex="1" parent="1">
          <mxGeometry x="90" y="-240" width="80" height="80" as="geometry" />
        </mxCell>
        <mxCell id="VQ3b3Ni3QN9TiN-6UtQA-76" style="edgeStyle=none;rounded=0;orthogonalLoop=1;jettySize=auto;html=1;endArrow=none;startFill=0;" edge="1" parent="1" source="VQ3b3Ni3QN9TiN-6UtQA-69" target="VQ3b3Ni3QN9TiN-6UtQA-75">
          <mxGeometry relative="1" as="geometry" />
        </mxCell>
        <mxCell id="VQ3b3Ni3QN9TiN-6UtQA-77" style="edgeStyle=none;rounded=0;orthogonalLoop=1;jettySize=auto;html=1;endArrow=none;startFill=0;" edge="1" parent="1" source="VQ3b3Ni3QN9TiN-6UtQA-69" target="VQ3b3Ni3QN9TiN-6UtQA-74">
          <mxGeometry relative="1" as="geometry" />
        </mxCell>
        <mxCell id="VQ3b3Ni3QN9TiN-6UtQA-78" style="edgeStyle=none;rounded=0;orthogonalLoop=1;jettySize=auto;html=1;endArrow=none;startFill=0;" edge="1" parent="1" source="VQ3b3Ni3QN9TiN-6UtQA-69" target="VQ3b3Ni3QN9TiN-6UtQA-73">
          <mxGeometry relative="1" as="geometry" />
        </mxCell>
        <mxCell id="VQ3b3Ni3QN9TiN-6UtQA-79" style="edgeStyle=none;rounded=0;orthogonalLoop=1;jettySize=auto;html=1;endArrow=none;startFill=0;" edge="1" parent="1" source="VQ3b3Ni3QN9TiN-6UtQA-69" target="VQ3b3Ni3QN9TiN-6UtQA-70">
          <mxGeometry relative="1" as="geometry" />
        </mxCell>
        <mxCell id="VQ3b3Ni3QN9TiN-6UtQA-80" style="edgeStyle=none;rounded=0;orthogonalLoop=1;jettySize=auto;html=1;endArrow=none;startFill=0;" edge="1" parent="1" source="VQ3b3Ni3QN9TiN-6UtQA-69" target="VQ3b3Ni3QN9TiN-6UtQA-71">
          <mxGeometry relative="1" as="geometry" />
        </mxCell>
        <mxCell id="VQ3b3Ni3QN9TiN-6UtQA-81" style="edgeStyle=none;rounded=0;orthogonalLoop=1;jettySize=auto;html=1;endArrow=none;startFill=0;" edge="1" parent="1" source="VQ3b3Ni3QN9TiN-6UtQA-69" target="VQ3b3Ni3QN9TiN-6UtQA-72">
          <mxGeometry relative="1" as="geometry" />
        </mxCell>
        <mxCell id="VQ3b3Ni3QN9TiN-6UtQA-99" style="edgeStyle=none;rounded=0;orthogonalLoop=1;jettySize=auto;html=1;entryX=1;entryY=0.5;entryDx=0;entryDy=0;endArrow=none;startFill=0;" edge="1" parent="1" source="VQ3b3Ni3QN9TiN-6UtQA-69" target="VQ3b3Ni3QN9TiN-6UtQA-82">
          <mxGeometry relative="1" as="geometry">
            <Array as="points">
              <mxPoint x="1119" y="-440" />
            </Array>
          </mxGeometry>
        </mxCell>
        <mxCell id="VQ3b3Ni3QN9TiN-6UtQA-69" value="Incomes" style="html=1;whiteSpace=wrap;" vertex="1" parent="1">
          <mxGeometry x="1065" y="-680" width="110" height="50" as="geometry" />
        </mxCell>
        <mxCell id="VQ3b3Ni3QN9TiN-6UtQA-70" value="&lt;u&gt;id_incomes&lt;/u&gt;" style="ellipse;whiteSpace=wrap;html=1;" vertex="1" parent="1">
          <mxGeometry x="1250" y="-800" width="140" height="70" as="geometry" />
        </mxCell>
        <mxCell id="VQ3b3Ni3QN9TiN-6UtQA-71" value="units_id" style="ellipse;whiteSpace=wrap;html=1;" vertex="1" parent="1">
          <mxGeometry x="1250" y="-640" width="140" height="70" as="geometry" />
        </mxCell>
        <mxCell id="VQ3b3Ni3QN9TiN-6UtQA-72" value="created_at" style="ellipse;whiteSpace=wrap;html=1;" vertex="1" parent="1">
          <mxGeometry x="1250" y="-720" width="140" height="70" as="geometry" />
        </mxCell>
        <mxCell id="VQ3b3Ni3QN9TiN-6UtQA-73" value="nominal" style="ellipse;whiteSpace=wrap;html=1;" vertex="1" parent="1">
          <mxGeometry x="850" y="-800" width="140" height="70" as="geometry" />
        </mxCell>
        <mxCell id="VQ3b3Ni3QN9TiN-6UtQA-74" value="description" style="ellipse;whiteSpace=wrap;html=1;" vertex="1" parent="1">
          <mxGeometry x="850" y="-640" width="140" height="70" as="geometry" />
        </mxCell>
        <mxCell id="VQ3b3Ni3QN9TiN-6UtQA-75" value="&lt;code data-end=&quot;926&quot; data-start=&quot;915&quot;&gt;detail_id&lt;/code&gt;" style="ellipse;whiteSpace=wrap;html=1;" vertex="1" parent="1">
          <mxGeometry x="850" y="-720" width="140" height="70" as="geometry" />
        </mxCell>
        <mxCell id="VQ3b3Ni3QN9TiN-6UtQA-84" style="edgeStyle=none;rounded=0;orthogonalLoop=1;jettySize=auto;html=1;endArrow=none;startFill=0;exitX=0.5;exitY=1;exitDx=0;exitDy=0;" edge="1" parent="1" source="VQ3b3Ni3QN9TiN-6UtQA-82" target="VQ3b3Ni3QN9TiN-6UtQA-8">
          <mxGeometry relative="1" as="geometry">
            <Array as="points">
              <mxPoint x="520" y="-330" />
              <mxPoint x="375" y="-330" />
            </Array>
          </mxGeometry>
        </mxCell>
        <mxCell id="VQ3b3Ni3QN9TiN-6UtQA-82" value="Have" style="rhombus;whiteSpace=wrap;html=1;" vertex="1" parent="1">
          <mxGeometry x="480" y="-480" width="80" height="80" as="geometry" />
        </mxCell>
        <mxCell id="VQ3b3Ni3QN9TiN-6UtQA-86" style="edgeStyle=none;rounded=0;orthogonalLoop=1;jettySize=auto;html=1;endArrow=none;startFill=0;" edge="1" parent="1" source="VQ3b3Ni3QN9TiN-6UtQA-92" target="VQ3b3Ni3QN9TiN-6UtQA-98">
          <mxGeometry relative="1" as="geometry" />
        </mxCell>
        <mxCell id="VQ3b3Ni3QN9TiN-6UtQA-87" style="edgeStyle=none;rounded=0;orthogonalLoop=1;jettySize=auto;html=1;endArrow=none;startFill=0;" edge="1" parent="1" source="VQ3b3Ni3QN9TiN-6UtQA-92" target="VQ3b3Ni3QN9TiN-6UtQA-97">
          <mxGeometry relative="1" as="geometry" />
        </mxCell>
        <mxCell id="VQ3b3Ni3QN9TiN-6UtQA-88" style="edgeStyle=none;rounded=0;orthogonalLoop=1;jettySize=auto;html=1;endArrow=none;startFill=0;" edge="1" parent="1" source="VQ3b3Ni3QN9TiN-6UtQA-92" target="VQ3b3Ni3QN9TiN-6UtQA-96">
          <mxGeometry relative="1" as="geometry" />
        </mxCell>
        <mxCell id="VQ3b3Ni3QN9TiN-6UtQA-89" style="edgeStyle=none;rounded=0;orthogonalLoop=1;jettySize=auto;html=1;endArrow=none;startFill=0;" edge="1" parent="1" source="VQ3b3Ni3QN9TiN-6UtQA-92" target="VQ3b3Ni3QN9TiN-6UtQA-93">
          <mxGeometry relative="1" as="geometry" />
        </mxCell>
        <mxCell id="VQ3b3Ni3QN9TiN-6UtQA-90" style="edgeStyle=none;rounded=0;orthogonalLoop=1;jettySize=auto;html=1;endArrow=none;startFill=0;" edge="1" parent="1" source="VQ3b3Ni3QN9TiN-6UtQA-92" target="VQ3b3Ni3QN9TiN-6UtQA-94">
          <mxGeometry relative="1" as="geometry" />
        </mxCell>
        <mxCell id="VQ3b3Ni3QN9TiN-6UtQA-91" style="edgeStyle=none;rounded=0;orthogonalLoop=1;jettySize=auto;html=1;endArrow=none;startFill=0;" edge="1" parent="1" source="VQ3b3Ni3QN9TiN-6UtQA-92" target="VQ3b3Ni3QN9TiN-6UtQA-95">
          <mxGeometry relative="1" as="geometry" />
        </mxCell>
        <mxCell id="VQ3b3Ni3QN9TiN-6UtQA-100" style="edgeStyle=none;rounded=0;orthogonalLoop=1;jettySize=auto;html=1;endArrow=none;startFill=0;" edge="1" parent="1" source="VQ3b3Ni3QN9TiN-6UtQA-92" target="VQ3b3Ni3QN9TiN-6UtQA-82">
          <mxGeometry relative="1" as="geometry">
            <mxPoint x="137.5" y="-400" as="targetPoint" />
            <Array as="points" />
          </mxGeometry>
        </mxCell>
        <mxCell id="VQ3b3Ni3QN9TiN-6UtQA-92" value="expense" style="html=1;whiteSpace=wrap;" vertex="1" parent="1">
          <mxGeometry x="465" y="-675" width="110" height="50" as="geometry" />
        </mxCell>
        <mxCell id="VQ3b3Ni3QN9TiN-6UtQA-93" value="&lt;u&gt;id_expense&lt;/u&gt;" style="ellipse;whiteSpace=wrap;html=1;" vertex="1" parent="1">
          <mxGeometry x="650" y="-795" width="140" height="70" as="geometry" />
        </mxCell>
        <mxCell id="VQ3b3Ni3QN9TiN-6UtQA-94" value="units_id" style="ellipse;whiteSpace=wrap;html=1;" vertex="1" parent="1">
          <mxGeometry x="650" y="-635" width="140" height="70" as="geometry" />
        </mxCell>
        <mxCell id="VQ3b3Ni3QN9TiN-6UtQA-95" value="created_at" style="ellipse;whiteSpace=wrap;html=1;" vertex="1" parent="1">
          <mxGeometry x="650" y="-715" width="140" height="70" as="geometry" />
        </mxCell>
        <mxCell id="VQ3b3Ni3QN9TiN-6UtQA-96" value="nominal" style="ellipse;whiteSpace=wrap;html=1;" vertex="1" parent="1">
          <mxGeometry x="250" y="-795" width="140" height="70" as="geometry" />
        </mxCell>
        <mxCell id="VQ3b3Ni3QN9TiN-6UtQA-97" value="description" style="ellipse;whiteSpace=wrap;html=1;" vertex="1" parent="1">
          <mxGeometry x="250" y="-635" width="140" height="70" as="geometry" />
        </mxCell>
        <mxCell id="VQ3b3Ni3QN9TiN-6UtQA-98" value="&lt;code data-end=&quot;926&quot; data-start=&quot;915&quot;&gt;category&lt;/code&gt;" style="ellipse;whiteSpace=wrap;html=1;" vertex="1" parent="1">
          <mxGeometry x="250" y="-715" width="140" height="70" as="geometry" />
        </mxCell>
        <mxCell id="VQ3b3Ni3QN9TiN-6UtQA-118" style="edgeStyle=none;rounded=0;orthogonalLoop=1;jettySize=auto;html=1;endArrow=none;startFill=0;" edge="1" parent="1" source="VQ3b3Ni3QN9TiN-6UtQA-117" target="VQ3b3Ni3QN9TiN-6UtQA-11">
          <mxGeometry relative="1" as="geometry" />
        </mxCell>
        <mxCell id="VQ3b3Ni3QN9TiN-6UtQA-117" value="created_at" style="ellipse;whiteSpace=wrap;html=1;" vertex="1" parent="1">
          <mxGeometry x="-90" y="-300" width="140" height="70" as="geometry" />
        </mxCell>
        <mxCell id="VQ3b3Ni3QN9TiN-6UtQA-121" value="mini_soccer_rent" style="html=1;whiteSpace=wrap;" vertex="1" parent="1">
          <mxGeometry x="-120" y="-685" width="110" height="50" as="geometry" />
        </mxCell>
        <mxCell id="VQ3b3Ni3QN9TiN-6UtQA-131" style="edgeStyle=none;rounded=0;orthogonalLoop=1;jettySize=auto;html=1;endArrow=none;startFill=0;" edge="1" parent="1" source="VQ3b3Ni3QN9TiN-6UtQA-122" target="VQ3b3Ni3QN9TiN-6UtQA-121">
          <mxGeometry relative="1" as="geometry" />
        </mxCell>
        <mxCell id="VQ3b3Ni3QN9TiN-6UtQA-122" value="&lt;u&gt;id_minsoc&lt;/u&gt;" style="ellipse;whiteSpace=wrap;html=1;" vertex="1" parent="1">
          <mxGeometry x="-200" y="-890" width="140" height="70" as="geometry" />
        </mxCell>
        <mxCell id="VQ3b3Ni3QN9TiN-6UtQA-138" style="edgeStyle=none;rounded=0;orthogonalLoop=1;jettySize=auto;html=1;endArrow=none;startFill=0;" edge="1" parent="1" source="VQ3b3Ni3QN9TiN-6UtQA-124" target="VQ3b3Ni3QN9TiN-6UtQA-121">
          <mxGeometry relative="1" as="geometry" />
        </mxCell>
        <mxCell id="VQ3b3Ni3QN9TiN-6UtQA-124" value="unit_id" style="ellipse;whiteSpace=wrap;html=1;" vertex="1" parent="1">
          <mxGeometry x="-50" y="-900" width="140" height="70" as="geometry" />
        </mxCell>
        <mxCell id="VQ3b3Ni3QN9TiN-6UtQA-137" style="edgeStyle=none;rounded=0;orthogonalLoop=1;jettySize=auto;html=1;endArrow=none;startFill=0;" edge="1" parent="1" source="VQ3b3Ni3QN9TiN-6UtQA-125" target="VQ3b3Ni3QN9TiN-6UtQA-121">
          <mxGeometry relative="1" as="geometry" />
        </mxCell>
        <mxCell id="VQ3b3Ni3QN9TiN-6UtQA-125" value="created_at" style="ellipse;whiteSpace=wrap;html=1;" vertex="1" parent="1">
          <mxGeometry x="90" y="-850" width="140" height="70" as="geometry" />
        </mxCell>
        <mxCell id="VQ3b3Ni3QN9TiN-6UtQA-132" style="edgeStyle=none;rounded=0;orthogonalLoop=1;jettySize=auto;html=1;endArrow=none;startFill=0;" edge="1" parent="1" source="VQ3b3Ni3QN9TiN-6UtQA-126" target="VQ3b3Ni3QN9TiN-6UtQA-121">
          <mxGeometry relative="1" as="geometry" />
        </mxCell>
        <mxCell id="VQ3b3Ni3QN9TiN-6UtQA-126" value="tenant_name" style="ellipse;whiteSpace=wrap;html=1;" vertex="1" parent="1">
          <mxGeometry x="-330" y="-840" width="140" height="70" as="geometry" />
        </mxCell>
        <mxCell id="VQ3b3Ni3QN9TiN-6UtQA-135" style="edgeStyle=none;rounded=0;orthogonalLoop=1;jettySize=auto;html=1;endArrow=none;startFill=0;" edge="1" parent="1" source="VQ3b3Ni3QN9TiN-6UtQA-127" target="VQ3b3Ni3QN9TiN-6UtQA-121">
          <mxGeometry relative="1" as="geometry" />
        </mxCell>
        <mxCell id="VQ3b3Ni3QN9TiN-6UtQA-127" value="duration" style="ellipse;whiteSpace=wrap;html=1;" vertex="1" parent="1">
          <mxGeometry x="90" y="-675" width="140" height="70" as="geometry" />
        </mxCell>
        <mxCell id="VQ3b3Ni3QN9TiN-6UtQA-136" style="edgeStyle=none;rounded=0;orthogonalLoop=1;jettySize=auto;html=1;endArrow=none;startFill=0;" edge="1" parent="1" source="VQ3b3Ni3QN9TiN-6UtQA-128" target="VQ3b3Ni3QN9TiN-6UtQA-121">
          <mxGeometry relative="1" as="geometry" />
        </mxCell>
        <mxCell id="VQ3b3Ni3QN9TiN-6UtQA-128" value="tarif_id" style="ellipse;whiteSpace=wrap;html=1;" vertex="1" parent="1">
          <mxGeometry x="90" y="-770" width="140" height="70" as="geometry" />
        </mxCell>
        <mxCell id="VQ3b3Ni3QN9TiN-6UtQA-133" style="edgeStyle=none;rounded=0;orthogonalLoop=1;jettySize=auto;html=1;endArrow=none;startFill=0;" edge="1" parent="1" source="VQ3b3Ni3QN9TiN-6UtQA-129" target="VQ3b3Ni3QN9TiN-6UtQA-121">
          <mxGeometry relative="1" as="geometry" />
        </mxCell>
        <mxCell id="VQ3b3Ni3QN9TiN-6UtQA-129" value="total_bayar" style="ellipse;whiteSpace=wrap;html=1;" vertex="1" parent="1">
          <mxGeometry x="-350" y="-760" width="140" height="70" as="geometry" />
        </mxCell>
        <mxCell id="VQ3b3Ni3QN9TiN-6UtQA-134" style="edgeStyle=none;rounded=0;orthogonalLoop=1;jettySize=auto;html=1;endArrow=none;startFill=0;" edge="1" parent="1" source="VQ3b3Ni3QN9TiN-6UtQA-130" target="VQ3b3Ni3QN9TiN-6UtQA-121">
          <mxGeometry relative="1" as="geometry" />
        </mxCell>
        <mxCell id="VQ3b3Ni3QN9TiN-6UtQA-130" value="description" style="ellipse;whiteSpace=wrap;html=1;" vertex="1" parent="1">
          <mxGeometry x="-340" y="-675" width="140" height="70" as="geometry" />
        </mxCell>
        <mxCell id="VQ3b3Ni3QN9TiN-6UtQA-149" style="edgeStyle=none;rounded=0;orthogonalLoop=1;jettySize=auto;html=1;endArrow=none;startFill=0;entryX=0.5;entryY=0;entryDx=0;entryDy=0;" edge="1" parent="1" source="VQ3b3Ni3QN9TiN-6UtQA-142" target="VQ3b3Ni3QN9TiN-6UtQA-194">
          <mxGeometry relative="1" as="geometry">
            <mxPoint x="-418.8853503184714" y="-366.1146496815286" as="targetPoint" />
          </mxGeometry>
        </mxCell>
        <mxCell id="VQ3b3Ni3QN9TiN-6UtQA-142" value="Buper_Rents" style="html=1;whiteSpace=wrap;" vertex="1" parent="1">
          <mxGeometry x="-815" y="-775" width="110" height="50" as="geometry" />
        </mxCell>
        <mxCell id="VQ3b3Ni3QN9TiN-6UtQA-146" style="edgeStyle=none;rounded=0;orthogonalLoop=1;jettySize=auto;html=1;endArrow=none;startFill=0;" edge="1" parent="1" source="VQ3b3Ni3QN9TiN-6UtQA-143" target="VQ3b3Ni3QN9TiN-6UtQA-142">
          <mxGeometry relative="1" as="geometry" />
        </mxCell>
        <mxCell id="VQ3b3Ni3QN9TiN-6UtQA-143" value="&lt;u&gt;id_buper&lt;/u&gt;" style="ellipse;whiteSpace=wrap;html=1;" vertex="1" parent="1">
          <mxGeometry x="-1005" y="-865" width="140" height="70" as="geometry" />
        </mxCell>
        <mxCell id="VQ3b3Ni3QN9TiN-6UtQA-147" style="edgeStyle=none;rounded=0;orthogonalLoop=1;jettySize=auto;html=1;endArrow=none;startFill=0;" edge="1" parent="1" source="VQ3b3Ni3QN9TiN-6UtQA-144" target="VQ3b3Ni3QN9TiN-6UtQA-142">
          <mxGeometry relative="1" as="geometry" />
        </mxCell>
        <mxCell id="VQ3b3Ni3QN9TiN-6UtQA-144" value="unit_id" style="ellipse;whiteSpace=wrap;html=1;" vertex="1" parent="1">
          <mxGeometry x="-885" y="-910" width="140" height="70" as="geometry" />
        </mxCell>
        <mxCell id="VQ3b3Ni3QN9TiN-6UtQA-148" style="edgeStyle=none;rounded=0;orthogonalLoop=1;jettySize=auto;html=1;endArrow=none;startFill=0;" edge="1" parent="1" source="VQ3b3Ni3QN9TiN-6UtQA-145" target="VQ3b3Ni3QN9TiN-6UtQA-142">
          <mxGeometry relative="1" as="geometry" />
        </mxCell>
        <mxCell id="VQ3b3Ni3QN9TiN-6UtQA-145" value="created_at" style="ellipse;whiteSpace=wrap;html=1;" vertex="1" parent="1">
          <mxGeometry x="-735" y="-910" width="140" height="70" as="geometry" />
        </mxCell>
        <mxCell id="VQ3b3Ni3QN9TiN-6UtQA-151" style="edgeStyle=none;rounded=0;orthogonalLoop=1;jettySize=auto;html=1;endArrow=none;startFill=0;" edge="1" parent="1" source="VQ3b3Ni3QN9TiN-6UtQA-150">
          <mxGeometry relative="1" as="geometry">
            <mxPoint x="-815" y="-748" as="targetPoint" />
          </mxGeometry>
        </mxCell>
        <mxCell id="VQ3b3Ni3QN9TiN-6UtQA-150" value="keterangan_acara" style="ellipse;whiteSpace=wrap;html=1;" vertex="1" parent="1">
          <mxGeometry x="-1015" y="-785" width="140" height="70" as="geometry" />
        </mxCell>
        <mxCell id="VQ3b3Ni3QN9TiN-6UtQA-153" style="edgeStyle=none;rounded=0;orthogonalLoop=1;jettySize=auto;html=1;endArrow=none;startFill=0;" edge="1" parent="1" source="VQ3b3Ni3QN9TiN-6UtQA-152" target="VQ3b3Ni3QN9TiN-6UtQA-142">
          <mxGeometry relative="1" as="geometry" />
        </mxCell>
        <mxCell id="VQ3b3Ni3QN9TiN-6UtQA-152" value="tarif_id" style="ellipse;whiteSpace=wrap;html=1;" vertex="1" parent="1">
          <mxGeometry x="-640" y="-840" width="140" height="70" as="geometry" />
        </mxCell>
        <mxCell id="VQ3b3Ni3QN9TiN-6UtQA-167" style="edgeStyle=none;rounded=0;orthogonalLoop=1;jettySize=auto;html=1;endArrow=none;startFill=0;entryX=0;entryY=0;entryDx=0;entryDy=0;" edge="1" parent="1" source="VQ3b3Ni3QN9TiN-6UtQA-154" target="VQ3b3Ni3QN9TiN-6UtQA-194">
          <mxGeometry relative="1" as="geometry">
            <mxPoint x="-422.1631205673757" y="-357.1631205673757" as="targetPoint" />
          </mxGeometry>
        </mxCell>
        <mxCell id="VQ3b3Ni3QN9TiN-6UtQA-154" value="Kios_Rents" style="html=1;whiteSpace=wrap;" vertex="1" parent="1">
          <mxGeometry x="-805" y="-605" width="110" height="50" as="geometry" />
        </mxCell>
        <mxCell id="VQ3b3Ni3QN9TiN-6UtQA-163" style="edgeStyle=none;rounded=0;orthogonalLoop=1;jettySize=auto;html=1;endArrow=none;startFill=0;" edge="1" parent="1" source="VQ3b3Ni3QN9TiN-6UtQA-156" target="VQ3b3Ni3QN9TiN-6UtQA-154">
          <mxGeometry relative="1" as="geometry" />
        </mxCell>
        <mxCell id="VQ3b3Ni3QN9TiN-6UtQA-156" value="&lt;u&gt;id_kios&lt;/u&gt;" style="ellipse;whiteSpace=wrap;html=1;" vertex="1" parent="1">
          <mxGeometry x="-970" y="-695" width="140" height="70" as="geometry" />
        </mxCell>
        <mxCell id="VQ3b3Ni3QN9TiN-6UtQA-164" style="edgeStyle=none;rounded=0;orthogonalLoop=1;jettySize=auto;html=1;endArrow=none;startFill=0;" edge="1" parent="1" source="VQ3b3Ni3QN9TiN-6UtQA-157" target="VQ3b3Ni3QN9TiN-6UtQA-154">
          <mxGeometry relative="1" as="geometry" />
        </mxCell>
        <mxCell id="VQ3b3Ni3QN9TiN-6UtQA-157" value="unit_id" style="ellipse;whiteSpace=wrap;html=1;" vertex="1" parent="1">
          <mxGeometry x="-990" y="-615" width="140" height="70" as="geometry" />
        </mxCell>
        <mxCell id="VQ3b3Ni3QN9TiN-6UtQA-162" style="edgeStyle=none;rounded=0;orthogonalLoop=1;jettySize=auto;html=1;endArrow=none;startFill=0;" edge="1" parent="1" source="VQ3b3Ni3QN9TiN-6UtQA-158" target="VQ3b3Ni3QN9TiN-6UtQA-154">
          <mxGeometry relative="1" as="geometry" />
        </mxCell>
        <mxCell id="VQ3b3Ni3QN9TiN-6UtQA-158" value="created_at" style="ellipse;whiteSpace=wrap;html=1;" vertex="1" parent="1">
          <mxGeometry x="-820" y="-710" width="140" height="70" as="geometry" />
        </mxCell>
        <mxCell id="VQ3b3Ni3QN9TiN-6UtQA-165" style="edgeStyle=none;rounded=0;orthogonalLoop=1;jettySize=auto;html=1;endArrow=none;startFill=0;" edge="1" parent="1" source="VQ3b3Ni3QN9TiN-6UtQA-159" target="VQ3b3Ni3QN9TiN-6UtQA-154">
          <mxGeometry relative="1" as="geometry" />
        </mxCell>
        <mxCell id="VQ3b3Ni3QN9TiN-6UtQA-159" value="tenant_name" style="ellipse;whiteSpace=wrap;html=1;" vertex="1" parent="1">
          <mxGeometry x="-970" y="-535" width="140" height="70" as="geometry" />
        </mxCell>
        <mxCell id="VQ3b3Ni3QN9TiN-6UtQA-166" style="edgeStyle=none;rounded=0;orthogonalLoop=1;jettySize=auto;html=1;endArrow=none;startFill=0;" edge="1" parent="1" source="VQ3b3Ni3QN9TiN-6UtQA-160" target="VQ3b3Ni3QN9TiN-6UtQA-154">
          <mxGeometry relative="1" as="geometry" />
        </mxCell>
        <mxCell id="VQ3b3Ni3QN9TiN-6UtQA-160" value="total_bayar" style="ellipse;whiteSpace=wrap;html=1;" vertex="1" parent="1">
          <mxGeometry x="-820" y="-530" width="140" height="70" as="geometry" />
        </mxCell>
        <mxCell id="VQ3b3Ni3QN9TiN-6UtQA-181" style="edgeStyle=none;rounded=0;orthogonalLoop=1;jettySize=auto;html=1;endArrow=none;startFill=0;entryX=0;entryY=0.5;entryDx=0;entryDy=0;" edge="1" parent="1" source="VQ3b3Ni3QN9TiN-6UtQA-168" target="VQ3b3Ni3QN9TiN-6UtQA-194">
          <mxGeometry relative="1" as="geometry">
            <mxPoint x="-411.7654320987658" y="-346.7654320987656" as="targetPoint" />
          </mxGeometry>
        </mxCell>
        <mxCell id="VQ3b3Ni3QN9TiN-6UtQA-168" value="weslk_rents" style="html=1;whiteSpace=wrap;" vertex="1" parent="1">
          <mxGeometry x="-827.5" y="-320" width="110" height="50" as="geometry" />
        </mxCell>
        <mxCell id="VQ3b3Ni3QN9TiN-6UtQA-170" style="edgeStyle=none;rounded=0;orthogonalLoop=1;jettySize=auto;html=1;endArrow=none;startFill=0;" edge="1" parent="1" source="VQ3b3Ni3QN9TiN-6UtQA-169" target="VQ3b3Ni3QN9TiN-6UtQA-168">
          <mxGeometry relative="1" as="geometry" />
        </mxCell>
        <mxCell id="VQ3b3Ni3QN9TiN-6UtQA-169" value="&lt;u&gt;id_weslik&lt;/u&gt;" style="ellipse;whiteSpace=wrap;html=1;" vertex="1" parent="1">
          <mxGeometry x="-1080" y="-370" width="140" height="70" as="geometry" />
        </mxCell>
        <mxCell id="VQ3b3Ni3QN9TiN-6UtQA-178" style="edgeStyle=none;rounded=0;orthogonalLoop=1;jettySize=auto;html=1;endArrow=none;startFill=0;" edge="1" parent="1" source="VQ3b3Ni3QN9TiN-6UtQA-171" target="VQ3b3Ni3QN9TiN-6UtQA-168">
          <mxGeometry relative="1" as="geometry" />
        </mxCell>
        <mxCell id="VQ3b3Ni3QN9TiN-6UtQA-171" value="unit_id" style="ellipse;whiteSpace=wrap;html=1;" vertex="1" parent="1">
          <mxGeometry x="-1050" y="-290" width="140" height="70" as="geometry" />
        </mxCell>
        <mxCell id="VQ3b3Ni3QN9TiN-6UtQA-179" style="edgeStyle=none;rounded=0;orthogonalLoop=1;jettySize=auto;html=1;endArrow=none;startFill=0;" edge="1" parent="1" source="VQ3b3Ni3QN9TiN-6UtQA-172" target="VQ3b3Ni3QN9TiN-6UtQA-168">
          <mxGeometry relative="1" as="geometry" />
        </mxCell>
        <mxCell id="VQ3b3Ni3QN9TiN-6UtQA-172" value="created_at" style="ellipse;whiteSpace=wrap;html=1;" vertex="1" parent="1">
          <mxGeometry x="-940" y="-230" width="140" height="70" as="geometry" />
        </mxCell>
        <mxCell id="VQ3b3Ni3QN9TiN-6UtQA-180" style="edgeStyle=none;rounded=0;orthogonalLoop=1;jettySize=auto;html=1;endArrow=none;startFill=0;" edge="1" parent="1" source="VQ3b3Ni3QN9TiN-6UtQA-173" target="VQ3b3Ni3QN9TiN-6UtQA-168">
          <mxGeometry relative="1" as="geometry" />
        </mxCell>
        <mxCell id="VQ3b3Ni3QN9TiN-6UtQA-173" value="buyer_name" style="ellipse;whiteSpace=wrap;html=1;" vertex="1" parent="1">
          <mxGeometry x="-785" y="-230" width="140" height="70" as="geometry" />
        </mxCell>
        <mxCell id="VQ3b3Ni3QN9TiN-6UtQA-176" style="edgeStyle=none;rounded=0;orthogonalLoop=1;jettySize=auto;html=1;endArrow=none;startFill=0;" edge="1" parent="1" source="VQ3b3Ni3QN9TiN-6UtQA-174" target="VQ3b3Ni3QN9TiN-6UtQA-168">
          <mxGeometry relative="1" as="geometry" />
        </mxCell>
        <mxCell id="VQ3b3Ni3QN9TiN-6UtQA-174" value="usage_per_meter" style="ellipse;whiteSpace=wrap;html=1;" vertex="1" parent="1">
          <mxGeometry x="-980" y="-440" width="140" height="70" as="geometry" />
        </mxCell>
        <mxCell id="VQ3b3Ni3QN9TiN-6UtQA-177" style="edgeStyle=none;rounded=0;orthogonalLoop=1;jettySize=auto;html=1;endArrow=none;startFill=0;" edge="1" parent="1" source="VQ3b3Ni3QN9TiN-6UtQA-175" target="VQ3b3Ni3QN9TiN-6UtQA-168">
          <mxGeometry relative="1" as="geometry" />
        </mxCell>
        <mxCell id="VQ3b3Ni3QN9TiN-6UtQA-175" value="total_bayar" style="ellipse;whiteSpace=wrap;html=1;" vertex="1" parent="1">
          <mxGeometry x="-830" y="-440" width="140" height="70" as="geometry" />
        </mxCell>
        <mxCell id="VQ3b3Ni3QN9TiN-6UtQA-193" style="edgeStyle=none;rounded=0;orthogonalLoop=1;jettySize=auto;html=1;endArrow=none;startFill=0;" edge="1" parent="1" source="VQ3b3Ni3QN9TiN-6UtQA-182" target="VQ3b3Ni3QN9TiN-6UtQA-194">
          <mxGeometry relative="1" as="geometry">
            <mxPoint x="-406.1494252873563" y="-341.1494252873563" as="targetPoint" />
          </mxGeometry>
        </mxCell>
        <mxCell id="VQ3b3Ni3QN9TiN-6UtQA-182" value="Internet&lt;div&gt;Subscriptions&lt;/div&gt;" style="html=1;whiteSpace=wrap;" vertex="1" parent="1">
          <mxGeometry x="-840" y="-40" width="110" height="50" as="geometry" />
        </mxCell>
        <mxCell id="VQ3b3Ni3QN9TiN-6UtQA-190" style="edgeStyle=none;rounded=0;orthogonalLoop=1;jettySize=auto;html=1;endArrow=none;startFill=0;" edge="1" parent="1" source="VQ3b3Ni3QN9TiN-6UtQA-183" target="VQ3b3Ni3QN9TiN-6UtQA-182">
          <mxGeometry relative="1" as="geometry" />
        </mxCell>
        <mxCell id="VQ3b3Ni3QN9TiN-6UtQA-183" value="&lt;u&gt;id_Internet_subs&lt;/u&gt;" style="ellipse;whiteSpace=wrap;html=1;" vertex="1" parent="1">
          <mxGeometry x="-1025" y="-50" width="140" height="70" as="geometry" />
        </mxCell>
        <mxCell id="VQ3b3Ni3QN9TiN-6UtQA-189" style="edgeStyle=none;rounded=0;orthogonalLoop=1;jettySize=auto;html=1;endArrow=none;startFill=0;" edge="1" parent="1" source="VQ3b3Ni3QN9TiN-6UtQA-184" target="VQ3b3Ni3QN9TiN-6UtQA-182">
          <mxGeometry relative="1" as="geometry" />
        </mxCell>
        <mxCell id="VQ3b3Ni3QN9TiN-6UtQA-184" value="unit_id" style="ellipse;whiteSpace=wrap;html=1;" vertex="1" parent="1">
          <mxGeometry x="-940" y="-130" width="140" height="70" as="geometry" />
        </mxCell>
        <mxCell id="VQ3b3Ni3QN9TiN-6UtQA-188" style="edgeStyle=none;rounded=0;orthogonalLoop=1;jettySize=auto;html=1;endArrow=none;startFill=0;" edge="1" parent="1" source="VQ3b3Ni3QN9TiN-6UtQA-185" target="VQ3b3Ni3QN9TiN-6UtQA-182">
          <mxGeometry relative="1" as="geometry" />
        </mxCell>
        <mxCell id="VQ3b3Ni3QN9TiN-6UtQA-185" value="created_at" style="ellipse;whiteSpace=wrap;html=1;" vertex="1" parent="1">
          <mxGeometry x="-717.5" y="-50" width="140" height="70" as="geometry" />
        </mxCell>
        <mxCell id="VQ3b3Ni3QN9TiN-6UtQA-192" style="edgeStyle=none;rounded=0;orthogonalLoop=1;jettySize=auto;html=1;endArrow=none;startFill=0;" edge="1" parent="1" source="VQ3b3Ni3QN9TiN-6UtQA-186" target="VQ3b3Ni3QN9TiN-6UtQA-182">
          <mxGeometry relative="1" as="geometry" />
        </mxCell>
        <mxCell id="VQ3b3Ni3QN9TiN-6UtQA-186" value="Nama_pelanggan" style="ellipse;whiteSpace=wrap;html=1;" vertex="1" parent="1">
          <mxGeometry x="-805" y="40" width="140" height="70" as="geometry" />
        </mxCell>
        <mxCell id="VQ3b3Ni3QN9TiN-6UtQA-191" style="edgeStyle=none;rounded=0;orthogonalLoop=1;jettySize=auto;html=1;endArrow=none;startFill=0;" edge="1" parent="1" source="VQ3b3Ni3QN9TiN-6UtQA-187" target="VQ3b3Ni3QN9TiN-6UtQA-182">
          <mxGeometry relative="1" as="geometry" />
        </mxCell>
        <mxCell id="VQ3b3Ni3QN9TiN-6UtQA-187" value="total_bayar" style="ellipse;whiteSpace=wrap;html=1;" vertex="1" parent="1">
          <mxGeometry x="-970" y="30" width="140" height="70" as="geometry" />
        </mxCell>
        <mxCell id="VQ3b3Ni3QN9TiN-6UtQA-195" style="edgeStyle=none;rounded=0;orthogonalLoop=1;jettySize=auto;html=1;endArrow=none;startFill=0;" edge="1" parent="1" source="VQ3b3Ni3QN9TiN-6UtQA-194" target="VQ3b3Ni3QN9TiN-6UtQA-11">
          <mxGeometry relative="1" as="geometry" />
        </mxCell>
        <mxCell id="VQ3b3Ni3QN9TiN-6UtQA-196" style="edgeStyle=none;rounded=0;orthogonalLoop=1;jettySize=auto;html=1;endArrow=none;startFill=0;" edge="1" parent="1" source="VQ3b3Ni3QN9TiN-6UtQA-194" target="VQ3b3Ni3QN9TiN-6UtQA-8">
          <mxGeometry relative="1" as="geometry" />
        </mxCell>
        <mxCell id="VQ3b3Ni3QN9TiN-6UtQA-197" style="edgeStyle=none;rounded=0;orthogonalLoop=1;jettySize=auto;html=1;endArrow=none;startFill=0;" edge="1" parent="1" source="VQ3b3Ni3QN9TiN-6UtQA-194" target="VQ3b3Ni3QN9TiN-6UtQA-121">
          <mxGeometry relative="1" as="geometry" />
        </mxCell>
        <mxCell id="VQ3b3Ni3QN9TiN-6UtQA-194" value="Have" style="rhombus;whiteSpace=wrap;html=1;" vertex="1" parent="1">
          <mxGeometry x="-245" y="-450" width="80" height="80" as="geometry" />
        </mxCell>
      </root>
    </mxGraphModel>
  </diagram>
</mxfile>
